<svg xmlns="http://www.w3.org/2000/svg" viewBox="0 0 400 400"><defs><clipPath id="clippath"><path class="cls-1" d="M0-18.12h266.67v420H0z"/></clipPath><clipPath id="clippath-1"><path class="cls-1" transform="rotate(-12.33 93.672 197.997)" d="M-66.36-36.56h320v469h-320z"/></clipPath><clipPath id="clippath-2"><path class="cls-1" transform="rotate(-12.33 93.672 197.997)" d="M-66.36-36.56h320v469h-320z"/></clipPath><style>.cls-1{fill:none}</style></defs><g style="clip-path:url(#clippath)"><g style="clip-path:url(#clippath-1)"><g style="clip-path:url(#clippath-2)"><path d="m-24.53 152.46-5.17-33.66-.26-1.69 1.72-.54L.9 107.48l1.82-.57c.14-.05.34-.1.42-.14l.26-.1c.16-.08.33-.15.48-.26.61-.37 1.1-.92 1.36-1.53.28-.61.31-1.24.18-1.83l-.51-1.5-.62-1.8-4.96-14.41-1.75-5.09 5.5.67 24.98 3.02L24 72.19l-1.83-5.32 4.49-3.9 10.29-8.91-71.4-54.37 13.12-16.66 78.17 63.5 8.78 7.13-8.58 6.89L42.02 72.6l12.82 42.2L96 58.95l3.26-4.42 4.36 2.57 23.56 13.89 11.78 6.94 5.89 3.47 2.94 1.73c.6.35.71.42 1.02.56.28.13.57.21.86.29 1.2.28 2.64.01 3.72-.73.54-.36.99-.83 1.33-1.38l.23-.43c.09-.16.21-.49.32-.73l.66-1.57 5.3-12.61 10.58-25.21.33-.8.7-.22 44.19-14.32-42.19 17.27-8.43 25.24-4.33 12.97-.54 1.62c-.1.29-.16.49-.3.85-.15.38-.3.76-.48 1.13a11.5 11.5 0 0 1-3.04 3.81 12.255 12.255 0 0 1-9.16 2.64c-.82-.11-1.64-.29-2.43-.56-.76-.24-1.67-.7-2.07-.9l-3.07-1.51-6.13-3.02-12.27-6.04-19.6-9.66L90.8 89.27l14.97-.79 3.17-.16.65 2.94 3.6 16.27 13.82-.18 8.26-.1 2.07-.03h1.03c.32-.02.82-.01 1.22.01 1.7.09 3.38.52 4.93 1.24 1.54.73 2.94 1.77 4.08 3.05.56.65 1.07 1.34 1.49 2.09l1 1.83 3.94 7.26 7.36 13.55 80.63-4.05-81.53 7.68-1.08.1-.6-1-8.51-14.15-4.26-7.07-1.05-1.75c-.28-.44-.6-.84-.96-1.22a7.795 7.795 0 0 0-2.57-1.74c-.97-.4-2.02-.61-3.06-.62-.29 0-.48 0-.84.03l-1.03.06-2.06.12-8.25.47-16.49.94-2.55.15-.7-2.61-4.15-15.5-17.84 1.71-15.04 23.99 57.44 19.56 4.29 1.46-.1 4.3-.56 22.88 26.48 4.63 2.44.43.45 2.27 3.83 19.29 15.3 1.35 1.28.11.65.96 24.44 36.21 58.99 28.65-60.68-26.04-.35-.15-.27-.36-25.56-34.3-16.49-.69-2.16-.09-.56-2.24-4.66-18.78-23.35-2.97-1.11 44.99 23.51 14.45.4.25.56.37c.38.24.73.52 1.08.82.7.57 1.33 1.24 1.9 1.96 1.13 1.44 1.91 3.15 2.3 4.94.39 1.79.38 3.66-.03 5.42-.1.44-.24.87-.38 1.3-.17.42-.33.84-.52 1.24-.19.38-.43.84-.6 1.13l-.49.81-5.98 10.02 42.09 23.02.6.33.31.5 69.74 110.83-73.45-107.58-31.18-15.56-10.62 28.38 32.18 24.05.22.16.07.23 14.52 44.79-15.96-44.01-33.74-23.45-.92-.64.38-1.1 10.15-30.27-10.72-5.35-3.11-1.55 1.73-3.16 7.28-13.28.45-.83c.14-.26.17-.36.27-.55l.19-.52.13-.52c.13-.7.09-1.42-.09-2.08-.18-.67-.49-1.3-.95-1.83-.23-.26-.47-.51-.77-.71-.14-.11-.28-.22-.44-.3l-.23-.15-.41-.23-26.38-14.89-2.2-1.24-.04-2.69-.95-74.18-25.85-7.73-27.51 28.26 2.74 11.04.77 3.08-2.32 1.79-7.46 5.75 2.45 2.74 13.8 15.39 1.82 2.03-1.3 2.17-12.56 21.11 20.05 12.57 1.22.77-.52 1.29-9.26 22.86 8.1 10.64.44.58-.36.59-3.22 5.32 34.86 45.64-36.73-44.99-.4-.48.32-.57 3-5.33-8.47-10.4-.45-.55.26-.7L81.77 252l-19.22-11.21-2.51 4.22-8.6 14.45-1.08 1.8-.54.91-.23.4c-.07.11-.12.22-.18.34a5.61 5.61 0 0 0-.4 3.8l.23 1.03.46 2.05.93 4.1 14.83 65.57-18.3-64.69-1.15-4.04-.57-2.02-.29-1.01c-.1-.34-.22-.83-.28-1.26a9.82 9.82 0 0 1 .64-5.22c.09-.2.17-.41.28-.6l.27-.53.49-.93.97-1.86 7.82-14.88 14.38-27.36-12.81-12.84-1.83-1.83-.91-.92-.45-.46-.11-.11-.17-.17c-.16-.18-.32-.36-.47-.55-1.2-1.53-1.77-3.61-1.52-5.55a7.836 7.836 0 0 1 2.64-4.98l5.53-4.74-3.33-10.9-.78-2.56 1.94-2.21 23.81-27.21-34.21-10.24-3.56-1.06-1.31-3.78-11.14-32.29-23.6-3.94 2.74 9.31.54 1.83c.18.65.34 1.06.59 2.15.35 1.91.04 3.92-.83 5.59a9.103 9.103 0 0 1-3.83 3.89c-.4.23-.82.4-1.24.56l-.65.21c-.22.07-.32.09-.49.14l-1.84.49-27.85 7.33 3.58 33.23.14 1.22-1.16.17-54.92 8.19 53.29-10.42Zm79.81-36.19.11.35.84.29-.95-.64Z" style="fill:#555554"/></g></g></g></svg>
