<?xml version="1.0" encoding="UTF-8"?><svg id="Layer_1" xmlns="http://www.w3.org/2000/svg" viewBox="0 0 56 56"><defs><style>.cls-1{fill:none;}</style></defs><g><path class="cls-1" d="M8.17,11.48V44.69H26.05V11.48H8.17Zm17.87,31.83c0,1.82-1.89,.04-1.89,.04l-10.4-8.51h-5.51v-13.51h5.51l10.6-8.75s1.7-1.38,1.7,.04v30.69Z"/><path d="M24.34,12.58l-10.6,8.75h-5.51v13.51h5.51l10.4,8.51s1.89,1.78,1.89-.04V12.62c0-1.42-1.7-.04-1.7-.04Z"/></g><path d="M31.94,18.69c-.55-.59-1.42-.59-1.97,0-.55,.59-.55,1.57,0,2.17,1.81,2.01,2.68,4.57,2.72,7.17,0,2.6-.91,5.2-2.72,7.21-.55,.59-.55,1.58,0,2.17,.28,.31,.63,.43,.98,.43s.71-.16,.99-.43c2.32-2.6,3.5-5.99,3.5-9.38s-1.14-6.74-3.5-9.34Z"/><path d="M35.72,13.84c-.55-.63-1.42-.63-1.97,0-.55,.59-.55,1.57,0,2.17,3.03,3.35,4.53,7.68,4.53,12.06s-1.49,8.75-4.53,12.09c-.55,.59-.55,1.57,0,2.17,.27,.28,.63,.43,.98,.43s.71-.16,.98-.43c3.58-3.94,5.36-9.14,5.36-14.3,.04-5.08-1.77-10.24-5.36-14.18Z"/><g><path class="cls-1" d="M37.5,8.24V47.76h1.92c-.36,0-.71-.12-.99-.43-.55-.59-.55-1.58,0-2.17,4.29-4.72,6.42-10.91,6.42-17.09s-2.13-12.29-6.42-17.02c-.55-.59-.55-1.58,0-2.17,.55-.63,1.42-.63,1.97,0,4.8,5.28,7.21,12.25,7.21,19.19s-2.4,13.94-7.21,19.26c-.28,.27-.63,.43-.98,.43h8.25V8.24h-10.17Z"/><path d="M47.62,28.06c0-6.93-2.4-13.91-7.21-19.19-.55-.63-1.42-.63-1.97,0-.55,.59-.55,1.58,0,2.17,4.29,4.72,6.42,10.87,6.42,17.02s-2.13,12.37-6.42,17.09c-.55,.59-.55,1.58,0,2.17,.28,.31,.63,.43,.99,.43s.71-.16,.98-.43c4.8-5.32,7.21-12.29,7.21-19.26Z"/></g></svg>