<?xml version="1.0" encoding="UTF-8"?><svg id="Layer_1" xmlns="http://www.w3.org/2000/svg" viewBox="0 0 56 56"><defs><style>.cls-1{fill:none;}.cls-2{fill:#231f20;}</style></defs><g><path class="cls-1" d="M17.11,4.35V37.62h17.92V4.35H17.11Zm17.9,31.88c0,1.82-1.89,.04-1.89,.04l-10.42-8.52h-5.52V14.21h5.52l10.61-8.76s1.7-1.38,1.7,.04v30.74Z"/><path d="M33.31,5.45l-10.62,8.76h-5.52v13.53h5.52l10.42,8.52s1.9,1.78,1.9-.04V5.49c0-1.42-1.7-.04-1.7-.04Z"/></g><g><path class="cls-2" d="M12.3,54.74c.32-1.42,.62-2.82,.9-4.18,.12-.57,.24-1.17,.36-1.8,.13-.63,.25-1.26,.36-1.87,.12-.61,.23-1.2,.33-1.77,.11-.57,.2-1.09,.27-1.57,.31-.1,.61-.18,.9-.25,.3-.07,.6-.13,.91-.18,.31-.05,.6-.08,.88-.08,.47,0,.87,.08,1.2,.24,.32,.16,.58,.37,.78,.64,.2,.27,.34,.58,.43,.94,.08,.36,.13,.74,.13,1.16,0,.59-.11,1.16-.32,1.71-.22,.55-.51,1.04-.87,1.46-.36,.43-.78,.77-1.25,1.02-.47,.25-.96,.38-1.46,.38h-.17c-.09,.36-.16,.75-.24,1.17-.07,.42-.14,.81-.19,1.17-.07,.42-.14,.84-.21,1.27l-2.74,.54Zm4.07-7.81c-.12,.62-.24,1.29-.38,1.99,.17-.04,.35-.14,.53-.29s.36-.35,.51-.6,.29-.54,.38-.86c.09-.33,.14-.67,.14-1.03,0-.39-.09-.69-.26-.89-.17-.2-.37-.3-.58-.3-.12,.7-.23,1.36-.35,1.98Z"/><path class="cls-2" d="M21.68,54.25c-.36,.02-.73,.05-1.1,.09-.37,.04-.73,.1-1.08,.17-.35,.07-.67,.15-.96,.25,.06-.47,.14-1,.22-1.58,.09-.58,.18-1.18,.29-1.81,.11-.62,.22-1.25,.33-1.88,.11-.63,.22-1.24,.34-1.82,.26-1.38,.54-2.79,.84-4.23l2.77-.36c-.28,1.22-.56,2.42-.82,3.58-.12,.5-.23,1.01-.35,1.54-.12,.53-.23,1.05-.33,1.56-.11,.51-.2,1-.29,1.47s-.15,.9-.21,1.27c.26-.02,.55-.03,.85-.04,.3,0,.57,0,.8,0,.01,.2,.03,.4,.05,.59,.02,.19,.04,.37,.07,.53,.03,.16,.05,.3,.06,.42,.02,.12,.03,.2,.04,.25-.08,0-.17,0-.25,0-.08,0-.16,0-.25,0-.33,0-.67,0-1.04,.03Z"/><path class="cls-2" d="M28.08,54.55c-.32,.05-.6,.1-.86,.14,.04-.35,.08-.69,.13-1.03,.03-.3,.06-.59,.09-.89s.05-.55,.07-.76h-1.38l-.63,2.28c-.23,.03-.51,.06-.82,.1s-.61,.07-.89,.1c-.34,.04-.67,.09-1,.13,.42-1.4,.84-2.79,1.25-4.15,.17-.57,.35-1.17,.53-1.79s.37-1.24,.55-1.86c.18-.62,.36-1.21,.53-1.78,.17-.57,.32-1.09,.44-1.57,.72-.05,1.45-.12,2.19-.19,.74-.07,1.47-.17,2.18-.3-.03,.34-.07,.76-.1,1.26-.04,.5-.07,1.05-.1,1.64-.03,.59-.06,1.21-.09,1.85-.03,.64-.06,1.28-.1,1.9-.05,1.46-.11,3-.17,4.64-.32,.05-.63,.09-.95,.13-.26,.04-.55,.09-.87,.14Zm-1.57-4.12s.12,0,.23,0c.11,0,.23-.01,.35-.02,.12,0,.24-.01,.34-.02,.11,0,.18-.01,.22-.02,0-.06,0-.17,.02-.32s.03-.33,.05-.52c.02-.19,.03-.41,.06-.64s.04-.46,.06-.68c.04-.54,.1-1.12,.16-1.74l.1-1.38-.24,.02-.36,1.36-.98,3.97Z"/><path class="cls-2" d="M31.2,54.49l.73-3.18c0-.45,0-.95-.02-1.48-.02-.53-.04-1.07-.07-1.61-.03-.54-.06-1.06-.09-1.56-.03-.5-.06-.94-.08-1.33-.02-.39-.05-.81-.1-1.28l2.58-.98v2.74c0,.28,0,.54,0,.81,0,.26,0,.51,0,.75v.59c.14-.36,.3-.8,.5-1.33,.19-.53,.38-1.04,.55-1.54,.2-.58,.41-1.19,.62-1.84l2.46,.56c-.45,.91-.9,1.81-1.33,2.71-.18,.39-.37,.79-.57,1.21-.2,.42-.4,.83-.6,1.25-.2,.42-.4,.82-.59,1.21-.19,.39-.36,.76-.52,1.09-.05,.28-.12,.58-.2,.9-.08,.33-.16,.64-.23,.93-.09,.35-.19,.7-.3,1.05l-2.71,.33Z"/></g></svg>