<svg xmlns="http://www.w3.org/2000/svg" viewBox="0 0 100 100" style="enable-background:new 0 0 100 100" xml:space="preserve"><path d="M7.7 57.3h21.1c.2 0 .5-.1.6-.3.3-.4.5-.9.8-1.3 1.8-3.1 3.5-6.4 4-8.8 1.4-6-1.6-15.5-5-23.2-.2-.5-.9-.6-1.2-.1L7.5 55.7l-.3.5c-.4.5 0 1.1.5 1.1z"/><path d="m97.8 61.5-24 6.9c-.1 0-.2.1-.3.2-2.6 2.9-4.9 4.8-5.4 5.3-1.5 1.3-3.3 2-5.3 2h-8.7V67H61c.2 0 .3-.1.5-.2l.9-.8c.4-.4.8-.8 1.4-1.3.3-.3.7-.7 1-1.1.4-.3.7-.7 1-1.1.6-.6 1.1-1.2 1.6-1.8.4-.4.7-.9 1.1-1.4.4-.5.8-1 1.1-1.5.3-.4.6-.8.8-1.2.3-.4.5-.8.7-1.2.7-1 1.2-2.2 1.7-3.3.3-.6.4-1.1.6-1.7.2-.6.3-1.1.5-1.7.3-1.4.3-2.7.2-4.1 0-.4-.1-.8-.2-1.2v-.1c0-.3-.1-.6-.2-.9-.3-1.3-.7-2.6-1.3-3.9-.2-.5-.4-1-.6-1.4-.5-1-1.1-1.9-1.7-2.9-.2-.3-.5-.7-.7-1.1-.5-.7-1-1.5-1.5-2.1l-1.2-1.5c-.4-.5-.8-1-1.3-1.5-1.4-1.5-3-3-4.4-4.3-.3-.3-.6-.5-.8-.8-1.1-1-2.1-1.9-2.9-2.5-.4-.3-.8-.6-1.1-.9-.4-.3-.7-.6-1-.7-.1 0-.1-.1-.2-.1l-.9-.3v-7.7c0-1.2-.5-2.4-1.3-3.2-.8-.8-1.9-1.3-3.1-1.3-2.5 0-4.5 2-4.5 4.5v5.1l-.5-.1-1.3-.3-1.1-.3-8.7-2.4c-.4-.1-.7.3-.5.7l1.4 2.6c.1.3.3.6.5 1 .2.5.5.9.7 1.4.2.4.4.8.6 1.3.4 1 .9 2.1 1.4 3.2.3.8.6 1.5.9 2.3.8 2 1.5 4.2 2.2 6.4l.6 2.1.1.4c.3 1 .5 2.1.6 3.1.1.7.3 1.4.3 2.1.1.8.2 1.5.2 2.3.1.7.1 1.4.1 2.1 0 1.8-.2 3.5-.5 5.2-.1.5-.3 1-.4 1.5l-.6 1.8c-.1.3-.3.7-.4 1.1C40 55.2 39 57.2 38 59c-1.5 2.7-3 5-4.1 6.5-.2.2-.3.4-.4.6-.3.5 0 1.1.6 1.1h11.2v8.9H33.8c-3 0-5.9-1.7-7.2-4.5-.7-1.4-1-2.9-.8-4.4 0-.5-.3-.9-.8-.9H2.1c-.4 0-.7.3-.7.7v.5C1.4 82.1 13.2 94 27.8 94h41.1c9.9 0 14.3-11.5 20-19.5 2.3-3.1 7.7-5.7 9.3-6.3.3-.1.4-.4.4-.7v-5.1c.1-.7-.4-1-.8-.9z"/></svg>
